<?xml version="1.0" encoding="utf-8"?>
<!-- Generator: Adobe Illustrator 16.0.3, SVG Export Plug-In . SVG Version: 6.00 Build 0)  -->
<!DOCTYPE svg PUBLIC "-//W3C//DTD SVG 1.1//EN" "http://www.w3.org/Graphics/SVG/1.1/DTD/svg11.dtd">
<svg version="1.1" id="Capa_1" xmlns="http://www.w3.org/2000/svg" xmlns:xlink="http://www.w3.org/1999/xlink" x="0px" y="0px"
	 width="60px" height="20px" viewBox="0 0 60 20" enable-background="new 0 0 60 20" xml:space="preserve">
<g>
	<path fill-rule="evenodd" clip-rule="evenodd" fill="#FFFFFF" d="M5.611,4.279L0.404,19.576h3.88l0.963-3.119h4.844l0.96,3.119
		h3.98L9.833,4.279H5.611z M6.096,13.68l1.572-5.044l1.574,5.044H6.096z"/>
	<polygon fill-rule="evenodd" clip-rule="evenodd" fill="#FFFFFF" points="16.563,19.576 20.412,19.576 20.412,13.002 
		26.359,13.002 26.359,10.085 20.412,10.085 20.412,7.199 26.879,7.199 26.879,4.279 16.563,4.279 	"/>
	<polygon fill-rule="evenodd" clip-rule="evenodd" fill="#FFFFFF" points="28.873,19.576 39.29,19.576 39.29,16.66 32.722,16.66 
		32.722,12.799 38.773,12.799 38.773,9.877 32.722,9.877 32.722,7.199 39.29,7.199 39.29,4.279 28.873,4.279 	"/>
	<polygon fill-rule="evenodd" clip-rule="evenodd" fill="#FFFFFF" points="49.944,11.719 54.776,4.279 50.485,4.279 47.64,8.894 
		44.866,4.279 40.386,4.279 45.19,11.873 40.19,19.576 44.474,19.576 47.491,14.697 50.455,19.576 54.94,19.576 	"/>
	<path fill="#609700" d="M59.211,0.423L59.211,0.423h-3.084c-0.213,0-0.386,0.173-0.386,0.386v3.083
		c0,0.214,0.173,0.386,0.386,0.386h3.084c0.212,0,0.385-0.172,0.385-0.386V0.81C59.596,0.596,59.423,0.423,59.211,0.423"/>
</g>
</svg>
